<!--?xml version="1.0" standalone="no"?-->
              <svg id="sw-js-blob-svg" viewBox="0 0 100 100" xmlns="http://www.w3.org/2000/svg" version="1.1">
                    <defs> 
                        <linearGradient id="sw-gradient" x1="0" x2="1" y1="1" y2="0">
                            <stop id="stop1" stop-color="rgba(221, 91, 156, 1)" offset="0%"></stop>
                            <stop id="stop2" stop-color="rgba(211, 231, 245, 1)" offset="100%"></stop>
                        </linearGradient>
                    </defs>
                <path fill="url(#sw-gradient)" d="M21.1,-32.6C25.2,-26,25,-17,26.8,-9.3C28.6,-1.5,32.3,5.1,31.5,11C30.6,16.9,25.3,22.1,19.2,25.3C13.2,28.4,6.6,29.5,0.4,28.9C-5.9,28.4,-11.7,26.3,-16.4,22.7C-21.2,19.2,-24.8,14.2,-29.5,7.7C-34.1,1.2,-39.8,-6.8,-39,-13.7C-38.2,-20.7,-30.9,-26.5,-23.3,-32C-15.7,-37.4,-7.9,-42.3,0.3,-42.8C8.5,-43.2,17,-39.1,21.1,-32.6Z" width="100%" height="100%" transform="translate(50 50)" stroke-width="0" style="transition: all 0.3s ease 0s;" stroke="url(#sw-gradient)"></path>
              </svg>